<?xml version="1.0" standalone="no"?><!DOCTYPE svg PUBLIC "-//W3C//DTD SVG 1.1//EN" "http://www.w3.org/Graphics/SVG/1.1/DTD/svg11.dtd"><svg t="1616083376277" class="icon" viewBox="0 0 1024 1024" version="1.1" xmlns="http://www.w3.org/2000/svg" p-id="2717" xmlns:xlink="http://www.w3.org/1999/xlink" width="32" height="32"><defs><style type="text/css"></style></defs><path d="M896 384V144l-97.92 96a400 400 0 0 0-308.64-112C296.8 144.96 141.76 298.4 128 486.88A388.64 388.64 0 0 0 520.48 896 395.2 395.2 0 0 0 772 806.56a32 32 0 0 0 1.6-46.4 33.28 33.28 0 0 0-44.16-1.6A327.84 327.84 0 0 1 520.48 832a322.88 322.88 0 0 1-326.56-337.12 327.68 327.68 0 0 1 556.8-208L651.04 384z m0 0" p-id="2718" fill="#cccccc"></path></svg>